<?xml version="1.0" standalone="no"?>
<!DOCTYPE svg PUBLIC "-//W3C//DTD SVG 20010904//EN"
 "http://www.w3.org/TR/2001/REC-SVG-20010904/DTD/svg10.dtd">
<svg version="1.0" xmlns="http://www.w3.org/2000/svg"
 width="2792.000000pt" height="1861.000000pt" viewBox="0 0 2792.000000 1861.000000"
 preserveAspectRatio="xMidYMid meet">

<g transform="translate(0.000000,1861.000000) scale(0.100000,-0.100000)"
fill="#000000" stroke="none">
<path d="M0 9305 l0 -9305 13960 0 13960 0 0 9305 0 9305 -6390 0 -6390 0 6
-37 c5 -33 1 -44 -28 -83 -19 -25 -46 -70 -60 -101 -32 -70 -81 -104 -135 -96
-20 4 -40 12 -45 19 -18 27 10 121 49 172 13 16 23 35 23 42 0 7 14 29 31 49
l31 35 -241 0 c-221 0 -242 -1 -248 -17 -8 -21 -93 -156 -103 -163 -4 -3 -14
-18 -23 -35 -9 -16 -31 -48 -50 -69 -32 -38 -38 -40 -99 -44 -62 -4 -67 -3
-103 29 -40 36 -67 88 -105 204 -12 39 -27 76 -33 83 -7 9 -75 12 -301 10
l-291 -3 -27 -50 c-15 -27 -36 -69 -46 -92 -23 -48 -42 -60 -103 -68 -63 -7
-336 20 -384 38 -22 9 -57 16 -77 17 -30 0 -42 7 -67 37 -19 23 -29 44 -25 53
4 8 9 28 12 43 l4 28 -313 -5 c-173 -3 -354 -4 -404 -4 -49 0 -2766 2 -6037 4
l-5948 4 0 -9305z m13871 9275 c9 -5 28 -37 44 -71 28 -64 30 -111 6 -171 -10
-28 -11 -28 -103 -28 l-92 0 -33 36 c-40 45 -44 92 -10 134 12 16 35 50 51 75
l29 47 46 -7 c25 -4 53 -11 62 -15z m-1006 -565 c120 -11 142 -11 151 1 9 11
44 14 158 14 l147 0 28 -30 c24 -27 29 -29 41 -15 7 8 17 15 22 15 6 0 26 7
45 16 32 16 40 16 111 -1 42 -9 106 -26 142 -36 50 -15 90 -19 176 -17 l112 3
38 -31 c34 -27 39 -36 36 -65 -5 -47 -106 -226 -202 -359 -22 -30 -46 -68 -55
-85 -8 -16 -32 -41 -53 -55 -20 -14 -40 -29 -43 -33 -3 -5 -25 -11 -47 -14
-55 -7 -60 7 -37 108 14 61 16 82 7 91 -9 9 -12 7 -12 -10 0 -13 -10 -33 -23
-45 -13 -12 -31 -38 -40 -58 -9 -19 -25 -43 -37 -54 -11 -10 -20 -23 -20 -30
0 -11 -27 -48 -50 -70 -43 -39 -91 -93 -96 -108 -3 -9 -19 -24 -35 -32 -16 -9
-41 -33 -55 -55 -15 -22 -34 -40 -43 -40 -18 -1 -70 -46 -87 -76 -6 -10 -15
-19 -20 -19 -5 0 -19 -10 -31 -22 -13 -13 -30 -23 -38 -23 -9 0 -18 -6 -21
-14 -6 -15 -54 -10 -54 6 0 5 -4 6 -10 3 -5 -3 -10 -2 -10 4 0 5 5 11 12 13 7
3 12 25 11 59 -1 30 7 80 18 111 10 32 19 68 19 82 0 13 6 37 14 53 8 15 26
69 41 118 40 137 70 209 176 417 43 87 79 159 79 162 0 4 -194 20 -220 18
-118 -8 -124 -10 -166 -69 -60 -85 -134 -173 -147 -174 -28 -3 -164 2 -189 7
-16 3 -28 10 -28 15 0 5 -8 9 -18 9 -11 0 -27 9 -37 20 -10 11 -24 20 -31 20
-7 0 -26 12 -43 26 -29 24 -31 31 -31 89 0 40 5 67 13 72 6 4 26 28 42 53 16
25 34 49 40 53 11 9 142 3 350 -18z m1725 -109 c64 -12 78 -19 102 -48 40 -48
39 -80 -6 -183 -43 -99 -74 -152 -101 -175 -9 -8 -21 -23 -26 -35 -5 -11 -13
-27 -18 -35 -5 -8 -19 -35 -31 -60 -13 -25 -38 -64 -57 -87 -18 -23 -33 -44
-33 -48 0 -4 -17 -27 -38 -50 -21 -24 -58 -72 -81 -107 -56 -84 -83 -118 -97
-118 -27 0 -136 -94 -189 -162 -92 -118 -141 -154 -190 -142 -30 7 -37 29 -36
106 0 50 7 69 43 131 23 40 45 74 49 77 3 3 20 36 38 75 18 38 39 74 46 80 20
15 65 105 65 129 0 12 17 50 38 86 20 36 57 103 81 150 24 47 69 126 99 175
31 50 70 114 88 144 46 74 60 88 102 99 52 14 68 14 152 -2z m237 -311 c24
-24 18 -87 -11 -132 -52 -76 -98 -138 -119 -159 -12 -12 -38 -43 -57 -69 -19
-26 -56 -70 -82 -99 -26 -28 -54 -60 -62 -71 -22 -31 -32 -9 -13 30 9 20 17
46 17 59 0 13 9 31 20 41 11 10 20 24 20 31 0 7 13 32 29 56 15 24 34 61 42
83 7 22 19 47 27 55 7 8 30 41 50 72 72 111 106 136 139 103z m-1111 -1166 c7
-12 -45 -71 -57 -63 -5 2 -3 17 4 32 17 40 39 53 53 31z m-22 -520 c13 -6 26
-23 29 -38 3 -14 9 -38 12 -52 6 -22 2 -29 -28 -48 -47 -29 -151 -36 -178 -13
-38 32 -9 137 41 148 14 3 30 7 35 9 22 7 65 4 89 -6z m868 -97 c36 -35 37
-39 27 -74 -6 -25 -25 -50 -54 -75 -52 -43 -72 -44 -200 -13 -102 25 -125 41
-125 86 0 39 39 100 74 115 12 5 71 6 131 3 l110 -5 37 -37z m-389 -463 c83
-43 87 -88 17 -191 -72 -107 -96 -127 -168 -140 -52 -10 -67 -9 -99 5 -21 9
-61 24 -90 32 -48 16 -51 19 -55 53 -5 37 2 56 35 101 9 13 17 31 17 40 1 29
48 71 85 76 6 1 33 4 60 8 28 4 75 9 105 13 30 3 57 8 59 10 6 6 10 5 34 -7z
m399 -182 c5 -24 -7 -67 -20 -77 -4 -3 -12 -14 -18 -24 -14 -26 -57 -40 -100
-31 -46 8 -52 27 -25 81 26 52 60 73 117 74 36 0 42 -3 46 -23z m-2367 -143
c47 -1 96 -8 119 -18 21 -9 42 -13 47 -11 10 7 179 20 232 18 21 -1 44 -6 51
-12 9 -8 82 -13 200 -16 103 -3 194 -9 204 -14 9 -5 76 -14 147 -21 72 -7 144
-18 160 -25 28 -12 156 -12 175 0 4 3 13 -1 19 -9 9 -10 27 -13 70 -9 86 8
249 -6 266 -23 7 -8 20 -14 29 -14 20 0 30 -35 16 -60 -6 -11 -8 -25 -5 -30 4
-6 -2 -13 -12 -16 -10 -3 -38 -14 -61 -25 -39 -17 -43 -23 -38 -45 5 -19 1
-30 -16 -44 -13 -11 -28 -19 -35 -20 -6 0 -13 -4 -15 -10 -2 -5 -18 -10 -35
-12 -18 -1 -35 -9 -38 -16 -7 -20 5 -82 16 -82 5 0 9 -15 9 -32 0 -25 3 -29
10 -18 6 10 10 11 10 3 0 -22 18 -14 60 27 22 22 47 40 55 40 8 0 15 5 15 10
0 6 9 10 20 10 11 0 20 5 20 11 0 6 6 9 13 6 16 -6 67 24 67 40 0 7 9 13 20
13 11 0 20 6 20 14 0 8 6 21 13 28 29 28 37 55 22 68 -11 9 -11 17 -3 36 6 13
16 24 21 24 6 0 0 9 -13 20 -28 25 -42 23 210 21 257 -3 284 -10 294 -78 6
-44 4 -48 -31 -79 -21 -18 -43 -33 -48 -34 -17 0 -84 -117 -92 -159 -4 -24
-18 -40 -62 -71 -12 -8 -21 -20 -21 -27 0 -7 -11 -13 -25 -13 -22 0 -25 -4
-25 -40 0 -36 3 -40 25 -40 16 0 25 -6 25 -16 0 -18 23 -44 39 -44 6 0 11 -9
11 -20 0 -13 7 -20 20 -20 16 0 20 -7 20 -30 0 -27 3 -30 30 -30 23 0 30 4 30
20 0 13 7 20 20 20 13 0 20 7 20 20 0 15 7 20 26 20 25 0 54 20 54 38 0 10 23
22 41 22 5 0 9 -25 9 -55 0 -59 16 -105 37 -105 7 0 13 -4 13 -10 0 -5 9 -10
21 -10 11 0 17 -5 14 -10 -4 -6 3 -6 18 1 13 6 27 24 33 42 5 18 14 31 19 30
20 -3 64 31 67 51 2 13 12 22 25 24 15 2 38 27 68 73 26 38 56 74 68 81 11 6
58 48 102 94 65 66 86 82 103 77 12 -3 24 -14 27 -24 4 -10 11 -19 17 -19 6 0
6 -6 -2 -15 -7 -9 -10 -27 -7 -45 5 -22 1 -33 -16 -47 -12 -10 -37 -48 -56
-83 -37 -69 -62 -104 -128 -177 -23 -25 -44 -58 -48 -71 -3 -14 -24 -43 -45
-64 -21 -22 -37 -45 -34 -52 4 -11 -29 -50 -81 -94 -34 -29 -13 -72 36 -72 13
0 19 -7 19 -24 0 -45 10 -56 50 -56 30 0 40 -5 45 -20 3 -11 15 -20 26 -20 11
0 19 -7 19 -16 0 -23 25 -44 54 -44 19 0 26 -5 26 -20 0 -17 7 -20 40 -20 l40
0 0 -60 c0 -33 4 -60 10 -60 6 0 10 -9 10 -20 0 -11 5 -20 10 -20 6 0 10 -13
10 -30 0 -23 4 -30 20 -30 11 0 20 -4 20 -10 0 -5 14 -10 30 -10 23 0 30 -4
30 -20 0 -11 5 -20 10 -20 6 0 10 -9 10 -20 0 -11 5 -20 10 -20 6 0 10 -9 10
-20 0 -11 5 -20 10 -20 6 0 10 -9 10 -20 0 -17 7 -20 40 -20 l40 0 0 -40 c0
-38 2 -40 30 -40 23 0 30 -4 30 -20 0 -11 5 -20 10 -20 6 0 10 -9 10 -20 0
-11 7 -20 15 -20 9 0 15 -9 15 -25 0 -28 20 -75 32 -75 4 0 8 -13 8 -30 0 -16
4 -30 9 -30 5 0 13 -9 16 -20 3 -11 15 -20 25 -20 10 0 22 -9 25 -20 3 -11 11
-20 16 -20 5 0 9 -16 9 -36 0 -19 7 -43 16 -51 15 -15 14 -18 -6 -33 l-22 -16
39 -42 c58 -63 63 -70 63 -87 0 -8 5 -15 10 -15 6 0 10 -9 10 -20 0 -11 4 -20
8 -20 5 0 15 -22 22 -50 7 -27 19 -50 25 -50 14 0 35 -142 35 -228 0 -40 4
-52 15 -52 8 0 15 -9 15 -20 0 -11 5 -20 10 -20 6 0 10 -13 10 -30 0 -23 4
-30 20 -30 13 0 20 -7 20 -19 0 -11 7 -26 15 -35 8 -8 15 -22 15 -30 0 -11 9
-16 30 -16 28 0 30 -3 30 -35 0 -19 -4 -35 -9 -35 -11 0 -21 -38 -14 -56 3 -8
11 -14 18 -14 7 0 15 -15 18 -32 14 -82 21 -104 31 -110 8 -6 7 -11 -4 -17
-12 -8 -11 -13 8 -29 12 -11 22 -29 22 -40 0 -31 31 -92 47 -92 8 0 13 -12 13
-28 0 -16 9 -39 20 -52 16 -18 20 -37 20 -92 0 -39 4 -68 10 -68 6 0 10 -13
10 -29 0 -16 6 -32 13 -34 9 -4 8 -8 -3 -17 -11 -9 -12 -13 -2 -17 6 -2 12
-18 12 -34 0 -16 5 -29 10 -29 6 0 10 -13 10 -30 0 -16 5 -30 10 -30 6 0 10
-9 10 -20 0 -13 7 -20 20 -20 18 0 20 -7 20 -70 0 -53 3 -70 14 -70 8 0 16
-14 19 -32 6 -41 29 -100 42 -110 6 -5 5 -12 -5 -17 -12 -8 -11 -13 8 -29 23
-20 32 -92 12 -92 -5 0 -10 -9 -10 -20 0 -11 4 -20 9 -20 5 0 12 -72 16 -160
4 -88 11 -160 15 -160 14 0 5 -389 -8 -402 -15 -15 -16 -78 -2 -78 6 0 10 -33
10 -80 0 -73 -2 -80 -20 -80 -11 0 -20 -4 -20 -10 0 -5 5 -10 10 -10 6 0 10
-16 10 -35 0 -19 -4 -35 -10 -35 -5 0 -10 -25 -10 -55 0 -42 -3 -55 -15 -55
-12 0 -15 -13 -15 -60 0 -33 4 -60 10 -60 13 0 1 -61 -16 -81 -8 -8 -14 -30
-14 -47 0 -22 -5 -32 -15 -32 -11 0 -15 -11 -15 -39 0 -29 -5 -40 -19 -44 -18
-4 -21 -16 -38 -149 -3 -27 -9 -48 -14 -48 -5 0 -9 -9 -9 -20 0 -11 -4 -20
-10 -20 -5 0 -10 -9 -10 -20 0 -11 5 -20 10 -20 19 0 10 -18 -12 -25 -21 -6
-20 -8 12 -15 19 -5 51 -13 70 -17 19 -5 39 -17 44 -28 13 -29 83 -60 101 -45
18 15 35 5 35 -20 0 -13 14 -23 48 -35 26 -10 61 -22 77 -28 18 -7 81 -10 163
-8 120 2 138 1 175 -18 23 -12 60 -25 83 -31 23 -5 53 -21 68 -35 15 -14 35
-25 44 -25 25 0 180 -60 247 -96 17 -9 55 -30 85 -46 30 -17 73 -39 95 -50 22
-11 47 -26 55 -33 8 -7 33 -18 55 -25 22 -7 51 -18 65 -25 51 -25 175 -75 188
-75 8 0 32 -15 55 -33 23 -19 50 -37 60 -40 9 -4 17 -14 17 -22 0 -18 -7 -15
-60 26 -19 15 -66 39 -105 53 -38 15 -79 32 -89 37 -11 6 -44 20 -74 30 -30
10 -60 23 -66 27 -6 5 -29 16 -51 24 -22 9 -101 45 -175 81 -74 36 -179 81
-232 101 -54 20 -130 51 -170 70 -153 70 -152 69 -233 63 -41 -4 -95 -12 -118
-18 -37 -9 -53 -7 -103 10 -139 47 -303 121 -324 146 -7 8 -18 15 -26 15 -7 0
-18 9 -23 19 -6 10 -24 24 -41 29 -16 6 -30 16 -30 22 0 7 -29 44 -65 82 -36
39 -85 101 -108 137 -55 84 -180 337 -207 419 -11 34 -33 88 -49 120 -69 135
-84 172 -103 257 -17 77 -19 111 -13 235 3 80 6 158 6 174 0 16 5 38 10 49 12
21 17 71 24 232 3 55 9 129 14 165 36 235 43 343 32 446 -7 57 -16 116 -20
131 -5 15 -14 48 -21 73 -43 152 -91 248 -193 385 -86 115 -83 112 -242 267
-66 64 -124 121 -130 127 -84 89 -384 219 -528 228 -50 4 -70 9 -80 23 -13 19
-22 20 -131 20 -46 0 -77 5 -93 15 -13 9 -27 13 -32 10 -5 -2 -33 0 -61 5 -37
7 -57 7 -66 -1 -9 -7 -15 -5 -22 8 -9 15 -15 16 -41 6 -17 -6 -49 -9 -71 -6
-42 6 -108 -18 -123 -43 -14 -24 -30 -16 -23 12 7 25 5 26 -21 19 -15 -3 -46
-8 -68 -10 -37 -3 -87 -22 -210 -80 -27 -12 -65 -29 -84 -36 -18 -7 -50 -29
-70 -50 -28 -28 -51 -41 -101 -53 -68 -18 -80 -27 -80 -63 0 -13 -4 -23 -8
-23 -5 0 -17 -16 -28 -35 -10 -19 -24 -35 -30 -35 -6 0 -19 -11 -28 -25 -9
-14 -33 -29 -56 -35 -22 -6 -40 -15 -40 -21 0 -6 -10 -9 -22 -7 -17 2 -24 11
-26 31 -2 15 -8 27 -13 27 -16 0 -47 -37 -60 -74 -7 -20 -16 -36 -20 -36 -16
0 -18 -33 -4 -44 23 -16 9 -43 -27 -55 -22 -8 -35 -8 -44 0 -11 9 -25 2 -63
-30 -27 -23 -54 -41 -60 -41 -6 0 -11 -7 -11 -15 0 -8 -11 -17 -25 -21 -14 -3
-25 -10 -25 -14 0 -4 -3 -22 -6 -39 -9 -43 23 -43 38 0 11 33 19 32 24 -3 2
-13 6 -40 10 -61 6 -33 4 -39 -14 -43 -16 -5 -21 -17 -27 -71 -4 -35 -4 -67
-1 -70 2 -3 -6 -35 -19 -72 -33 -96 -93 -289 -104 -341 -21 -91 -7 -328 29
-496 6 -27 16 -90 24 -139 8 -55 28 -128 51 -185 54 -134 58 -138 113 -142 92
-6 112 -84 87 -343 -8 -88 -24 -191 -35 -230 -25 -89 -27 -197 -3 -216 12 -10
48 -14 130 -14 102 0 116 -2 129 -19 18 -26 18 -105 -1 -130 -16 -22 -21 -116
-6 -116 5 0 13 -9 16 -21 7 -22 139 -89 176 -89 28 0 59 -18 59 -34 0 -7 -13
-30 -30 -51 -32 -40 -39 -89 -17 -117 6 -9 31 -28 54 -42 60 -37 126 -112 140
-158 6 -21 9 -56 6 -76 -3 -21 0 -64 7 -95 9 -44 18 -62 43 -82 52 -41 87 -76
87 -85 0 -19 -47 -40 -76 -34 -29 6 -41 2 -309 -101 -57 -23 -175 -57 -260
-77 -177 -40 -237 -64 -345 -138 -63 -43 -113 -90 -187 -173 -57 -64 -86 -72
-91 -24 -5 43 -31 50 -156 42 -61 -3 -225 -10 -364 -14 -139 -5 -255 -11 -258
-14 -3 -3 7 -24 22 -46 37 -56 20 -76 -25 -29 -53 56 -278 351 -396 519 -104
148 -125 181 -125 193 0 7 14 19 30 26 17 7 42 22 56 32 22 18 24 22 11 42 -8
11 -17 40 -21 64 -3 23 -15 59 -26 80 -11 20 -20 42 -20 49 0 7 -11 36 -24 65
-14 29 -66 150 -117 268 -50 118 -106 247 -124 285 -18 39 -60 135 -94 215
-35 80 -73 155 -86 167 -28 25 -57 21 -145 -19 -30 -14 -73 -31 -95 -38 -39
-13 -175 -132 -175 -153 0 -15 -41 -57 -55 -57 -17 0 -109 -89 -130 -127 -12
-19 -29 -33 -46 -37 -39 -7 -64 -40 -61 -76 3 -23 -6 -38 -42 -76 -52 -53 -87
-110 -111 -183 -9 -27 -23 -55 -31 -61 -7 -7 -14 -18 -14 -25 0 -8 -6 -15 -12
-18 -10 -3 -10 -9 0 -29 8 -14 12 -36 9 -49 -4 -22 -5 -21 -12 9 -4 17 -14 32
-21 32 -11 0 -14 19 -14 80 0 47 -4 80 -10 80 -6 0 -10 29 -10 66 0 60 -3 68
-30 94 -27 26 -30 34 -30 94 0 37 -4 66 -10 66 -6 0 -10 33 -10 80 0 47 -4 80
-10 80 -5 0 -10 16 -10 35 0 32 -3 35 -40 45 -37 10 -40 13 -40 45 0 28 4 35
20 35 17 0 20 7 20 40 0 33 -3 40 -20 40 -13 0 -20 7 -20 20 0 13 -7 20 -20
20 -13 0 -20 7 -20 20 0 13 -7 20 -20 20 -17 0 -20 7 -20 40 0 33 -3 40 -20
40 -17 0 -20 7 -20 40 0 22 -4 40 -10 40 -6 0 -10 33 -10 80 0 47 4 80 10 80
6 0 10 33 10 80 0 47 4 80 10 80 6 0 10 29 10 66 0 60 -3 68 -30 94 l-30 28 0
134 c0 122 2 135 20 148 11 8 20 26 20 40 0 14 9 32 20 40 18 13 20 26 20 132
0 72 4 118 10 118 6 0 10 18 10 40 0 33 3 40 20 40 19 0 20 7 20 106 0 105 0
106 30 134 29 27 42 80 20 80 -5 0 -10 17 -10 38 0 26 6 42 20 52 17 12 20 26
20 82 0 61 2 68 20 68 18 0 20 7 20 80 0 47 4 80 10 80 6 0 10 33 10 80 0 47
4 80 10 80 6 0 10 33 10 80 0 47 4 80 10 80 6 0 10 12 10 26 0 33 21 54 54 54
24 0 26 4 26 40 0 22 5 40 10 40 6 0 10 30 10 70 l0 70 40 0 c22 0 40 5 40 10
0 6 -4 10 -10 10 -5 0 -10 12 -10 26 0 26 20 54 40 54 20 0 40 28 40 54 0 14
5 26 10 26 6 0 10 33 10 78 0 66 3 80 20 92 11 8 20 26 20 40 0 14 9 32 20 40
12 8 20 26 20 42 0 24 4 28 30 28 28 0 30 2 30 40 0 33 3 40 20 40 16 0 20 7
20 30 0 17 5 30 10 30 6 0 10 9 10 20 0 13 7 20 20 20 18 0 20 7 20 60 0 51 3
60 18 60 10 0 24 9 32 20 8 11 22 20 32 20 16 0 18 10 18 70 0 63 2 70 20 70
17 0 20 7 20 40 0 33 3 40 20 40 16 0 20 7 20 38 0 26 6 42 20 52 12 8 20 26
20 42 0 21 5 28 20 28 17 0 20 7 20 40 l0 40 46 0 c58 0 74 16 74 74 0 39 3
46 19 46 11 0 21 -6 24 -12 2 -8 15 -1 34 20 17 17 38 32 47 32 11 0 16 9 16
30 0 23 4 30 20 30 11 0 20 5 20 10 0 6 9 10 20 10 17 0 20 7 20 40 0 22 5 40
10 40 6 0 10 14 10 30 0 23 4 30 20 30 13 0 20 -7 20 -20 0 -13 7 -20 20 -20
18 0 20 7 20 58 0 46 4 60 20 72 11 8 20 20 20 28 0 7 6 20 14 28 8 8 21 14
28 14 8 0 20 9 28 20 10 14 26 20 50 20 24 0 40 6 50 20 8 12 26 20 42 20 21
0 28 5 28 20 0 11 5 20 10 20 6 0 10 9 10 20 0 17 7 20 40 20 38 0 40 2 40 30
0 23 4 30 20 30 11 0 20 5 20 10 0 6 9 10 20 10 11 0 20 5 20 10 0 6 9 10 20
10 11 0 20 5 20 10 0 6 9 10 20 10 13 0 20 7 20 20 0 13 7 20 20 20 11 0 20 7
20 15 0 25 46 65 75 65 14 0 25 5 25 10 0 6 18 10 40 10 36 0 40 2 40 26 0 33
21 54 54 54 25 0 26 3 26 56 0 35 5 61 14 70 17 16 146 20 146 4 0 -5 9 -10
20 -10 13 0 20 -7 20 -20 0 -18 7 -20 60 -20 l60 0 0 40 0 40 80 0 80 0 0 -30
c0 -16 2 -30 5 -30 13 0 55 50 55 65 0 8 8 15 18 15 10 0 24 9 32 20 11 15 26
20 60 20 34 0 49 5 60 20 8 11 25 20 38 20 23 0 82 51 82 71 0 5 10 9 23 9 12
0 29 9 37 20 8 11 22 20 32 20 10 0 18 5 18 10 0 6 -4 10 -10 10 -21 0 -10 39
13 42 13 3 3 7 -28 12 -27 4 -92 14 -142 22 -75 12 -104 13 -148 4 -41 -8 -64
-9 -87 -1 -17 6 -71 11 -120 11 -94 0 -173 14 -198 36 -8 7 -24 29 -34 49 -20
36 -20 36 2 57 28 28 89 38 182 31 41 -4 111 -7 155 -9z m-2815 -4034 c0 -5
-4 -10 -10 -10 -5 0 -10 5 -10 10 0 6 5 10 10 10 6 0 10 -4 10 -10z m590
-2348 c0 -4 14 -16 31 -26 20 -12 40 -37 54 -70 13 -28 55 -123 95 -210 41
-93 74 -180 77 -207 5 -42 2 -52 -21 -80 -25 -29 -27 -37 -20 -83 4 -28 10
-109 13 -181 6 -127 6 -130 32 -142 22 -11 27 -22 32 -63 9 -72 25 -99 86
-141 64 -45 71 -54 71 -98 0 -19 7 -42 15 -51 11 -12 15 -55 18 -190 3 -191
13 -232 55 -238 23 -3 23 -6 19 -85 -3 -45 -8 -97 -12 -114 -7 -32 -9 -33 -57
-33 -30 0 -47 4 -43 10 5 9 -2 12 -25 12 -3 0 -22 -3 -42 -6 -36 -7 -38 -5
-38 19 0 18 -5 25 -20 25 -13 0 -20 7 -20 18 0 10 -9 24 -20 32 -11 8 -20 21
-20 30 0 9 -9 22 -20 30 -11 8 -20 22 -20 32 0 14 -8 18 -40 18 l-40 0 0 40
c0 33 -3 40 -20 40 -13 0 -20 7 -20 20 0 13 -7 20 -20 20 -18 0 -20 7 -20 60
0 53 -2 60 -20 60 -17 0 -20 7 -20 40 0 33 -3 40 -20 40 -13 0 -20 7 -20 20 0
13 -7 20 -20 20 -13 0 -20 7 -20 20 0 13 -7 20 -20 20 -18 0 -20 7 -20 69 0
46 -4 71 -12 75 -10 5 -10 7 0 12 6 3 12 14 12 25 0 10 5 19 10 19 6 0 10 18
10 40 0 22 5 40 10 40 6 0 10 13 10 29 0 16 6 32 13 35 10 5 10 7 0 12 -7 3
-13 23 -13 45 0 32 -3 39 -20 39 -13 0 -20 7 -20 20 0 13 7 20 20 20 13 0 20
7 20 20 0 13 -7 20 -20 20 -13 0 -20 7 -20 20 0 11 -4 20 -10 20 -5 0 -10 9
-10 19 0 13 -8 21 -22 23 -15 2 -21 9 -19 18 11 37 12 132 1 145 -15 18 -15
213 0 280 6 28 15 68 19 90 10 48 43 140 64 182 28 52 77 101 77 75z m1079
-799 c32 -49 126 -178 209 -288 83 -110 148 -203 146 -206 -2 -3 -113 -9 -246
-13 -134 -4 -254 -10 -268 -13 -24 -6 -24 -6 -7 11 21 22 21 37 0 75 -11 19
-26 31 -39 31 -24 0 -34 17 -34 56 0 51 -16 64 -78 64 -88 0 -131 10 -137 31
-11 34 24 132 57 162 17 15 36 27 42 28 60 3 89 7 94 15 4 5 36 29 72 54 36
24 74 52 84 62 11 10 26 18 33 18 7 0 39 -39 72 -87z m-1206 -53 c3 -11 1 -20
-4 -20 -5 0 -9 9 -9 20 0 11 2 20 4 20 2 0 6 -9 9 -20z m8542 -160 c3 -5 2
-10 -4 -10 -5 0 -13 5 -16 10 -3 6 -2 10 4 10 5 0 13 -4 16 -10z m-8648 -62
c-3 -8 -6 -5 -6 6 -1 11 2 17 5 13 3 -3 4 -12 1 -19z m2213 -388 c11 -11 20
-24 20 -29 0 -18 -30 -32 -62 -29 -26 2 -34 8 -36 26 -7 49 41 69 78 32z m127
-11 c17 -17 4 -39 -23 -39 -17 0 -24 6 -24 18 0 32 25 43 47 21z m-692 -9 c20
-7 26 -16 23 -33 -3 -19 -9 -22 -48 -22 -42 0 -45 2 -42 25 4 38 24 46 67 30z
m415 -5 c15 -18 5 -35 -21 -35 -24 0 -37 29 -18 41 19 12 25 11 39 -6z m-272
-27 c3 -14 -3 -18 -27 -18 -29 0 -41 17 -24 34 13 13 48 1 51 -16z m-278 -14
c0 -8 -4 -14 -9 -14 -5 0 -16 -3 -25 -6 -11 -4 -16 0 -16 14 0 21 17 32 38 24
6 -2 12 -10 12 -18z m565 -74 c21 -23 12 -39 -13 -24 -19 12 -29 44 -14 44 5
0 17 -9 27 -20z m399 -89 c6 -9 -14 -117 -44 -241 -35 -143 -79 -365 -90 -448
-6 -46 -15 -94 -20 -107 -5 -13 -6 -26 -3 -29 4 -3 2 -6 -3 -6 -16 0 -34 23
-34 43 0 25 -65 82 -110 96 -21 6 -60 11 -89 11 -50 0 -51 1 -51 29 0 16 -9
48 -20 72 -30 66 -27 75 25 82 67 10 183 71 196 105 15 39 5 110 -17 127 -15
11 -19 27 -20 82 -1 46 -8 84 -23 117 -12 27 -19 52 -15 55 13 13 310 25 318
12z m-1163 -72 c-14 -46 -11 -100 7 -141 l19 -45 -26 -9 c-14 -5 -34 -8 -43
-6 -20 4 -24 27 -7 38 8 5 9 30 5 81 -5 53 -3 79 5 89 15 18 46 13 40 -7z
m-1545 -110 c55 -140 77 -210 72 -240 -3 -22 -6 -20 -31 23 -62 103 -128 293
-111 319 14 23 31 -3 70 -102z m1316 25 c3 -32 4 -61 1 -64 -12 -13 -33 39
-33 83 0 70 23 56 32 -19z m-422 -344 c0 -11 -4 -20 -9 -20 -6 0 -9 9 -8 20 1
11 5 20 9 20 4 0 8 -9 8 -20z m1349 -163 c9 -3 1 -5 -16 -6 -26 -1 -33 3 -33
17 0 28 14 36 24 13 5 -11 16 -22 25 -24z m-1545 -37 c10 -76 90 -321 120
-368 14 -23 26 -44 26 -47 0 -28 -91 79 -128 150 -46 91 -66 213 -48 293 10
44 22 33 30 -28z m1566 -5 c23 -28 -3 -40 -39 -19 -17 10 -31 22 -31 26 0 14
57 8 70 -7z m-2340 -215 c0 -5 -4 -10 -10 -10 -5 0 -10 5 -10 10 0 6 5 10 10
10 6 0 10 -4 10 -10z m186 -4 c18 -14 18 -15 -9 -21 -34 -9 -61 10 -37 25 20
13 23 12 46 -4z m191 -7 c16 -16 5 -39 -17 -39 -23 0 -34 16 -26 35 6 18 28
19 43 4z m562 -23 c15 -18 3 -46 -20 -46 -13 0 -19 7 -19 23 0 37 18 48 39 23z
m123 -11 c8 -19 8 -28 -2 -40 -27 -33 -70 -11 -70 37 0 24 4 28 30 28 23 0 33
-6 42 -25z m-1930 -1622 c19 -17 25 -53 8 -53 -12 0 -59 50 -60 63 0 13 33 7
52 -10z m393 -14 c19 -17 35 -40 35 -51 0 -10 5 -16 10 -13 6 3 10 1 10 -4 0
-23 -24 -9 -65 36 -24 26 -41 51 -39 55 8 12 10 11 49 -23z m338 -41 c19 -15
35 -78 19 -78 -9 0 -82 75 -82 85 0 10 47 5 63 -7z m-1786 -64 c-3 -3 -12 -4
-19 -1 -8 3 -5 6 6 6 11 1 17 -2 13 -5z m270 -2 c12 -8 16 -25 14 -57 -1 -18
-5 -16 -32 13 -28 32 -31 52 -6 52 7 0 17 -4 24 -8z m1601 -60 c-4 -21 -32
-36 -52 -29 -15 6 -23 47 -10 60 11 11 65 -15 62 -31z m-1798 4 c0 -3 -4 -8
-10 -11 -5 -3 -10 -1 -10 4 0 6 5 11 10 11 6 0 10 -2 10 -4z m2311 -314 c25
-12 57 -22 72 -22 14 0 38 -5 54 -11 15 -6 52 -15 81 -19 29 -5 67 -16 83 -24
21 -10 45 -13 80 -9 40 5 60 1 99 -17 37 -17 53 -20 62 -12 10 8 22 7 43 -2
41 -18 99 -36 114 -36 7 0 21 -10 30 -21 15 -19 20 -20 40 -9 13 6 36 9 52 6
17 -3 29 -1 33 7 3 9 8 8 16 -3 9 -12 10 -11 5 8 -10 35 40 30 73 -8 22 -25
34 -30 74 -30 l48 0 25 -56 c30 -67 49 -67 53 1 1 27 8 52 14 56 19 12 180 4
205 -9 16 -9 34 -10 66 -2 24 5 86 8 138 7 88 -3 98 -5 142 -35 69 -48 86 -92
34 -92 -12 0 -35 -7 -52 -16 -23 -12 -63 -15 -185 -15 -242 1 -231 2 -256 -26
-22 -26 -23 -26 -130 -20 -72 5 -111 3 -120 -4 -10 -8 -24 -8 -51 1 -21 6 -60
17 -88 25 -27 8 -86 26 -131 39 -44 14 -100 28 -123 32 -23 4 -59 19 -80 34
-51 37 -93 59 -150 76 -62 19 -83 18 -53 -3 22 -15 31 -53 13 -53 -16 0 -102
40 -132 61 -20 14 -41 20 -67 18 -66 -5 -142 35 -142 75 0 31 -59 86 -92 86
-20 0 -28 5 -28 18 0 21 47 42 70 32 8 -4 36 -17 61 -28z m1863 -180 c-3 -47
-29 -82 -62 -82 -30 1 -82 41 -82 64 0 9 12 18 28 21 15 3 38 12 52 20 14 7
34 13 45 12 16 -2 20 -9 19 -35z m-2974 -422 c0 -5 -6 -10 -14 -10 -8 0 -18 5
-21 10 -3 6 3 10 14 10 12 0 21 -4 21 -10z m93 1 c28 -11 43 -41 26 -52 -12
-7 -79 38 -79 54 0 10 24 9 53 -2z m225 -32 c-2 -6 -8 -10 -13 -10 -5 0 -11 4
-13 10 -2 6 4 11 13 11 9 0 15 -5 13 -11z m688 -159 c6 0 18 -8 28 -18 15 -18
15 -19 -9 -30 -17 -8 -25 -20 -25 -37 0 -14 -3 -25 -8 -25 -11 0 -52 92 -52
117 0 21 2 21 28 7 15 -7 32 -14 38 -14z m154 -113 c58 -35 76 -71 47 -96 -20
-16 -67 12 -90 52 -11 18 -23 27 -32 23 -14 -5 -35 21 -35 43 0 22 56 10 110
-22z m260 -264 c0 -21 -18 -15 -26 10 -3 12 -14 31 -23 42 -8 11 -1 7 17 -9
17 -17 32 -36 32 -43z m96 -31 c13 -8 34 -46 34 -61 0 -26 -31 -8 -45 25 -8
20 -15 38 -15 40 0 6 14 4 26 -4z m147 -119 c11 -13 22 -22 25 -19 7 7 70 -31
101 -61 13 -13 43 -32 65 -43 50 -25 129 -65 176 -90 19 -11 55 -29 80 -40
104 -48 216 -105 222 -115 21 -28 4 -31 -58 -9 -36 12 -75 29 -87 36 -12 8
-42 20 -67 27 -64 19 -115 47 -138 76 -13 16 -30 25 -49 25 -16 0 -39 9 -51
21 -13 11 -43 29 -67 40 -25 11 -50 29 -56 40 -8 15 -17 19 -37 15 -23 -5 -31
-1 -51 29 -13 19 -29 35 -35 35 -6 0 -19 8 -28 19 -8 10 -22 21 -29 23 -7 2
-9 9 -5 17 12 19 67 3 89 -26z m1450 -630 c-7 -2 -21 -2 -30 0 -10 3 -4 5 12
5 17 0 24 -2 18 -5z"/>
<path d="M13098 14793 c-47 -5 -57 -19 -65 -84 -3 -30 -12 -58 -19 -62 -18
-10 -18 -37 0 -37 7 0 19 -13 26 -30 l12 -29 38 39 c25 26 47 40 64 40 19 0
26 5 26 20 0 13 7 20 18 20 10 0 24 9 32 20 8 11 18 20 23 20 12 0 37 26 37
38 0 6 12 15 28 20 27 10 27 10 -10 11 -20 1 -40 6 -43 11 -6 10 -89 11 -167
3z"/>
<path d="M13543 14733 c9 -2 23 -2 30 0 6 3 -1 5 -18 5 -16 0 -22 -2 -12 -5z"/>
<path d="M14642 14047 c-7 -8 -7 -18 -2 -27 8 -13 11 -13 25 1 14 13 14 17 2
27 -11 10 -17 9 -25 -1z"/>
</g>
</svg>
