<?xml version="1.0" standalone="no"?>
<!DOCTYPE svg PUBLIC "-//W3C//DTD SVG 20010904//EN"
 "http://www.w3.org/TR/2001/REC-SVG-20010904/DTD/svg10.dtd">
<svg version="1.0" xmlns="http://www.w3.org/2000/svg"
 width="104.000000pt" height="92.000000pt" viewBox="0 0 104.000000 92.000000"
 preserveAspectRatio="xMidYMid meet">

<g transform="translate(0.000000,92.000000) scale(0.100000,-0.100000)"
fill="#000000" stroke="none">
<path d="M540 821 c0 -4 24 -11 53 -14 108 -11 212 -83 262 -183 27 -53 30
-69 30 -154 0 -113 -19 -163 -90 -239 -68 -72 -127 -96 -245 -96 -109 0 -155
17 -234 86 -95 84 -132 237 -87 364 23 65 25 75 13 75 -11 0 -43 -78 -55 -137
-13 -60 2 -151 33 -213 35 -68 111 -142 180 -174 56 -26 77 -30 150 -30 77 -1
92 3 152 33 81 40 149 109 186 189 38 81 38 202 1 282 -58 124 -189 220 -299
220 -28 0 -50 -4 -50 -9z"/>
<path d="M542 769 c2 -7 22 -15 44 -17 90 -9 186 -79 225 -166 26 -56 25 -176
0 -232 -96 -211 -390 -227 -507 -28 -15 25 -29 68 -33 96 -3 31 -12 53 -20 56
-11 4 -13 -5 -8 -47 19 -164 155 -278 322 -269 85 4 145 31 205 91 69 70 85
108 85 212 0 73 -4 98 -22 135 -29 59 -93 123 -148 149 -56 26 -150 40 -143
20z"/>
<path d="M540 712 c0 -4 24 -13 53 -20 73 -17 126 -57 160 -122 25 -47 28 -63
24 -111 -9 -103 -73 -186 -163 -208 -58 -15 -85 -14 -140 5 -25 8 -49 12 -52
9 -12 -11 29 -34 83 -46 71 -16 147 8 212 65 59 52 82 104 83 183 0 108 -61
199 -158 237 -44 17 -102 22 -102 8z"/>
<path d="M547 663 c-14 -14 -6 -21 33 -26 141 -19 191 -214 76 -302 -19 -15
-53 -29 -76 -32 -24 -4 -40 -11 -40 -19 0 -32 106 2 150 47 29 31 60 97 60
129 0 87 -61 171 -143 195 -59 18 -52 17 -60 8z"/>
</g>
</svg>
